<svg width="24" height="24" viewBox="0 0 24 24" fill="none" xmlns="http://www.w3.org/2000/svg">
<g clip-path="url(#clip0_1002_1107)">
<path d="M19.9958 3.5354H16.8402C14.3839 3.5354 12.3854 5.53381 12.3854 7.99017V10.6534H9.88824C9.62952 10.6534 9.41949 10.8633 9.41949 11.1222V14.7286C9.41949 14.9875 9.62952 15.1974 9.88824 15.1974H12.3854V23.0625H1.40625C1.14771 23.0625 0.9375 22.8523 0.9375 22.5938V1.40625C0.9375 1.14771 1.14771 0.9375 1.40625 0.9375H2.34375C2.60266 0.9375 2.8125 0.727661 2.8125 0.46875C2.8125 0.209839 2.60266 0 2.34375 0H1.40625C0.630798 0 0 0.630798 0 1.40625V22.5938C0 23.3692 0.630798 24 1.40625 24H12.8542C13.1131 24 13.3229 23.7902 13.3229 23.5312V14.7286C13.3229 14.4697 13.1131 14.2599 12.8542 14.2599H10.3572V11.5908H12.8542C13.1131 11.5908 13.3229 11.3809 13.3229 11.122V7.99017C13.3229 6.05072 14.9008 4.47272 16.8404 4.47272H19.5273V7.14166H16.8404C16.3804 7.14166 15.9919 7.53021 15.9919 7.99017V11.122C15.9919 11.3809 16.2017 11.5908 16.4606 11.5908H19.4615L19.1104 14.2599H16.4606C16.2019 14.2599 15.9919 14.4697 15.9919 14.7286V23.5312C15.9919 23.7902 16.2019 24 16.4606 24H17.9062C18.1652 24 18.375 23.7902 18.375 23.5312C18.375 23.2723 18.1652 23.0625 17.9062 23.0625H16.9294V15.1974H19.5214C19.7567 15.1974 19.9556 15.0229 19.9861 14.7898L20.4608 11.1832C20.4783 11.0495 20.4375 10.9146 20.3485 10.8131C20.2595 10.7115 20.131 10.6534 19.996 10.6534H16.9296V8.07935H19.996C20.2549 8.07935 20.4648 7.86951 20.4648 7.6106V4.00415C20.4646 3.74524 20.2548 3.5354 19.9958 3.5354Z" fill="white"/>
<path d="M22.5938 0H6.09375C5.83484 0 5.625 0.209839 5.625 0.46875C5.625 0.727661 5.83484 0.9375 6.09375 0.9375H22.5938C22.8523 0.9375 23.0625 1.14771 23.0625 1.40625V22.5938C23.0625 22.8523 22.8523 23.0625 22.5938 23.0625H21.6562C21.3973 23.0625 21.1875 23.2723 21.1875 23.5312C21.1875 23.7902 21.3973 24 21.6562 24H22.5938C23.3692 24 24 23.3692 24 22.5938V1.40625C24 0.630798 23.3692 0 22.5938 0Z" fill="white"/>
<path d="M19.7814 23.0625H19.7811C19.5222 23.0625 19.3125 23.2723 19.3125 23.5312C19.3125 23.7902 19.5225 24 19.7814 24C20.0403 24 20.2502 23.7902 20.2502 23.5312C20.2502 23.2723 20.0403 23.0625 19.7814 23.0625Z" fill="white"/>
<path d="M4.21893 0.9375C4.47784 0.9375 4.68768 0.727661 4.68768 0.46875C4.68768 0.209839 4.47784 0 4.21893 0H4.21857C3.95966 0 3.75 0.209839 3.75 0.46875C3.75 0.727661 3.96002 0.9375 4.21893 0.9375Z" fill="white"/>
</g>
<defs>
<clipPath id="clip0_1002_1107">
<rect width="24" height="24" fill="white"/>
</clipPath>
</defs>
</svg>
