<svg width="24" height="24" viewBox="0 0 24 24" fill="none" xmlns="http://www.w3.org/2000/svg">
<g clip-path="url(#clip0_1002_1099)">
<path d="M17.9062 0H11.0625C10.8036 0 10.5938 0.209839 10.5938 0.46875C10.5938 0.727661 10.8036 0.9375 11.0625 0.9375H17.9062C20.7493 0.9375 23.0625 3.25049 23.0625 6.09375V17.9062C23.0625 20.7495 20.7493 23.0625 17.9062 23.0625H6.09375C3.25067 23.0625 0.9375 20.7495 0.9375 17.9062V6.09375C0.9375 3.25049 3.25067 0.9375 6.09375 0.9375H7.3125C7.57141 0.9375 7.78125 0.727661 7.78125 0.46875C7.78125 0.209839 7.57141 0 7.3125 0H6.09375C2.73358 0 0 2.73358 0 6.09375V17.9062C0 21.2664 2.73358 24 6.09375 24H17.9062C21.2664 24 24 21.2664 24 17.9062V6.09375C24 2.73358 21.2664 0 17.9062 0Z" fill="white"/>
<path d="M16.6875 22.125H17.9062C20.2324 22.125 22.125 20.2324 22.125 17.9062V6.09375C22.125 3.76758 20.2324 1.875 17.9062 1.875H6.09375C3.76758 1.875 1.875 3.76758 1.875 6.09375V17.9062C1.875 20.2324 3.76758 22.125 6.09375 22.125H12.9375C13.1964 22.125 13.4062 21.9152 13.4062 21.6562C13.4062 21.3973 13.1964 21.1875 12.9375 21.1875H6.09375C4.28448 21.1875 2.8125 19.7155 2.8125 17.9062V6.09375C2.8125 4.28448 4.28448 2.8125 6.09375 2.8125H17.9062C19.7155 2.8125 21.1875 4.28448 21.1875 6.09375V17.9062C21.1875 19.7155 19.7155 21.1875 17.9062 21.1875H16.6875C16.4286 21.1875 16.2188 21.3973 16.2188 21.6562C16.2188 21.9152 16.4286 22.125 16.6875 22.125Z" fill="white"/>
<path d="M17.1562 12C17.1562 9.15692 14.8431 6.84375 12 6.84375C9.15692 6.84375 6.84375 9.15692 6.84375 12C6.84375 14.8431 9.15692 17.1562 12 17.1562C14.8431 17.1562 17.1562 14.8431 17.1562 12ZM12 16.2188C9.67383 16.2188 7.78125 14.3262 7.78125 12C7.78125 9.67383 9.67383 7.78125 12 7.78125C14.3262 7.78125 16.2188 9.67383 16.2188 12C16.2188 14.3262 14.3262 16.2188 12 16.2188Z" fill="white"/>
<path d="M12 8.71875C10.1907 8.71875 8.71875 10.1907 8.71875 12C8.71875 13.8093 10.1907 15.2812 12 15.2812C13.8093 15.2812 15.2812 13.8093 15.2812 12C15.2812 10.1907 13.8093 8.71875 12 8.71875ZM12 14.3438C10.7076 14.3438 9.65625 13.2924 9.65625 12C9.65625 10.7076 10.7076 9.65625 12 9.65625C13.2924 9.65625 14.3438 10.7076 14.3438 12C14.3438 13.2924 13.2924 14.3438 12 14.3438Z" fill="white"/>
<path d="M19.7812 6.09375C19.7812 5.05975 18.9401 4.21875 17.9062 4.21875C16.8723 4.21875 16.0312 5.05975 16.0312 6.09375C16.0312 7.12756 16.8723 7.96875 17.9062 7.96875C18.9401 7.96875 19.7812 7.12756 19.7812 6.09375ZM16.9688 6.09375C16.9688 5.57666 17.3893 5.15625 17.9062 5.15625C18.4232 5.15625 18.8438 5.57666 18.8438 6.09375C18.8438 6.61066 18.4232 7.03125 17.9062 7.03125C17.3893 7.03125 16.9688 6.61066 16.9688 6.09375Z" fill="white"/>
<path d="M9.18768 0.9375C9.44659 0.9375 9.65643 0.727661 9.65643 0.46875C9.65643 0.209839 9.44659 0 9.18768 0H9.18732C8.92859 0 8.71875 0.209839 8.71875 0.46875C8.71875 0.727661 8.92877 0.9375 9.18768 0.9375Z" fill="white"/>
<path d="M14.8123 21.1875C14.5534 21.1875 14.3438 21.3973 14.3438 21.6562C14.3438 21.9152 14.5538 22.125 14.8127 22.125C15.0716 22.125 15.2814 21.9152 15.2814 21.6562C15.2814 21.3973 15.0716 21.1875 14.8127 21.1875H14.8123Z" fill="white"/>
</g>
<defs>
<clipPath id="clip0_1002_1099">
<rect width="24" height="24" fill="white"/>
</clipPath>
</defs>
</svg>
