<svg width="24" height="24" viewBox="0 0 24 24" fill="none" xmlns="http://www.w3.org/2000/svg">
<g clip-path="url(#clip0_1002_1112)">
<path d="M17.9062 23.0625H1.40625C1.14771 23.0625 0.9375 22.8523 0.9375 22.5938V1.40625C0.9375 1.14771 1.14771 0.9375 1.40625 0.9375H2.34375C2.60266 0.9375 2.8125 0.727661 2.8125 0.46875C2.8125 0.209839 2.60266 0 2.34375 0H1.40625C0.630798 0 0 0.630798 0 1.40625V22.5938C0 23.3692 0.630798 24 1.40625 24H17.9062C18.165 24 18.375 23.7902 18.375 23.5312C18.375 23.2723 18.1652 23.0625 17.9062 23.0625Z" fill="white"/>
<path d="M22.5938 0H6.09375C5.83484 0 5.625 0.209839 5.625 0.46875C5.625 0.727661 5.83484 0.9375 6.09375 0.9375H22.5938C22.8523 0.9375 23.0625 1.14771 23.0625 1.40625V22.5938C23.0625 22.8523 22.8523 23.0625 22.5938 23.0625H21.6562C21.3973 23.0625 21.1875 23.2723 21.1875 23.5312C21.1875 23.7902 21.3973 24 21.6562 24H22.5938C23.3692 24 24 23.369 24 22.5938V1.40625C24 0.630798 23.3692 0 22.5938 0Z" fill="white"/>
<path d="M5.77734 8.28516C7.14075 8.28516 8.25 7.1759 8.25 5.8125C8.25 4.44891 7.14075 3.33984 5.77734 3.33984C4.41376 3.33984 3.30469 4.4491 3.30469 5.8125C3.30469 7.1759 4.41376 8.28516 5.77734 8.28516ZM5.77734 4.27734C6.62384 4.27734 7.3125 4.966 7.3125 5.8125C7.3125 6.659 6.62384 7.34766 5.77734 7.34766C4.93085 7.34766 4.24219 6.659 4.24219 5.8125C4.24219 4.966 4.93085 4.27734 5.77734 4.27734Z" fill="white"/>
<path d="M16.1367 8.51953C15.1007 8.51953 14.1008 8.87988 13.3008 9.51672V9.22266C13.3008 8.96375 13.0908 8.75391 12.832 8.75391H9.5625C9.30359 8.75391 9.09375 8.96375 9.09375 9.22266V20.1914C9.09375 20.4503 9.30359 20.6602 9.5625 20.6602H13.0078C13.2665 20.6602 13.4766 20.4503 13.4766 20.1914V13.8604C13.4766 13.0785 14.1127 12.4424 14.8945 12.4424C15.6764 12.4424 16.3125 13.0785 16.3125 13.8604V20.1914C16.3125 20.4503 16.5223 20.6602 16.7812 20.6602H20.2266C20.4853 20.6602 20.6953 20.4503 20.6953 20.1914V13.0781C20.6953 10.5645 18.6502 8.51953 16.1367 8.51953ZM19.7578 19.7227H17.25V13.8604C17.25 12.5616 16.1933 11.5049 14.8945 11.5049C13.5956 11.5049 12.5391 12.5616 12.5391 13.8604V19.7227H10.0312V9.69141H12.3633V10.6763C12.3633 10.8792 12.4937 11.059 12.6866 11.122C12.8793 11.1848 13.0909 11.1165 13.2105 10.9526C13.8942 10.0162 14.9881 9.45703 16.1367 9.45703C18.1333 9.45703 19.7578 11.0814 19.7578 13.0781V19.7227Z" fill="white"/>
<path d="M4.05469 8.75391C3.79578 8.75391 3.58594 8.96375 3.58594 9.22266V20.1914C3.58594 20.4503 3.79578 20.6602 4.05469 20.6602H7.5C7.75873 20.6602 7.96875 20.4503 7.96875 20.1914V9.22266C7.96875 8.96375 7.75873 8.75391 7.5 8.75391H4.05469ZM7.03125 19.7227H4.52344V9.69141H7.03125V19.7227Z" fill="white"/>
<path d="M4.21893 0.9375C4.47766 0.9375 4.68768 0.727661 4.68768 0.46875C4.68768 0.209839 4.47766 0 4.21893 0H4.21857C3.95966 0 3.75 0.209839 3.75 0.46875C3.75 0.727661 3.96002 0.9375 4.21893 0.9375Z" fill="white"/>
<path d="M19.7814 23.0625H19.7811C19.5222 23.0625 19.3125 23.2723 19.3125 23.5312C19.3125 23.7902 19.5225 24 19.7814 24C20.0403 24 20.2502 23.7902 20.2502 23.5312C20.2502 23.2723 20.0403 23.0625 19.7814 23.0625Z" fill="white"/>
</g>
<defs>
<clipPath id="clip0_1002_1112">
<rect width="24" height="24" fill="white"/>
</clipPath>
</defs>
</svg>
